<svg version="1.1" id="Layer_1" xmlns="http://www.w3.org/2000/svg" xmlns:xlink="http://www.w3.org/1999/xlink" x="0px" y="0px" viewBox="0 0 450 100" style="enable-background:new 0 0 450 100;" xml:space="preserve" width="450" height="100" >

<g>
	<g>
		<path class="st-0" style="stroke-linecap: round; stroke-linejoin: round; stroke-miterlimit: 10;" d="M67.9,35v45c0,8.2-6.7,15-15,15l0,0c-8.2,0-15-6.8-15-15V56V35h45c8.2,0,15,6.7,15,15l0,0c0,8.2-6.7,15-15,15
			h-15" stroke-opacity="0.95" stroke="#FFFFFF" fill="none" stroke-width="6px"></path>
	</g>
</g>
<path class="st-1" style="stroke-linecap: round; stroke-linejoin: round; stroke-miterlimit: 10;" d="M52.9,5c-8.3,0-15,6.8-15,15v15h-15c-8.3,0-15,6.8-15,15l0,0c0,8.2,6.8,15,15,15h45V44V20
	C67.9,11.7,61.2,5,52.9,5z" stroke-opacity="0.95" stroke="#FFFFFF" fill="#FFDC34" stroke-width="6px"></path>
<g>
	<path class="st-2" style="" d="M160.4,77.4c-4.7,0-9-1.1-12.8-3.3c-3.8-2.2-6.8-5.2-9-9c-2.2-3.8-3.3-8.1-3.3-12.9c0-4.7,1.1-9,3.2-12.8
		c2.1-3.8,5-6.8,8.7-9s7.8-3.3,12.4-3.3c4,0,7.7,0.9,10.9,2.6s5.9,4,7.8,6.8V10.2c0-1.1,0.3-1.9,1-2.6c0.7-0.6,1.5-0.9,2.5-0.9
		s1.9,0.3,2.5,0.9c0.7,0.6,1,1.5,1,2.6v42.5c-0.1,4.7-1.3,8.9-3.5,12.6c-2.2,3.8-5.2,6.7-8.9,8.9C169.3,76.4,165.1,77.4,160.4,77.4z
		 M160.4,71.2c3.5,0,6.6-0.8,9.3-2.5c2.7-1.6,4.9-3.9,6.5-6.7s2.4-6,2.4-9.6c0-3.5-0.8-6.7-2.4-9.6c-1.6-2.8-3.8-5.1-6.5-6.7
		c-2.7-1.6-5.8-2.4-9.3-2.4c-3.4,0-6.5,0.8-9.3,2.4c-2.8,1.6-5,3.9-6.6,6.7c-1.6,2.9-2.4,6-2.4,9.6s0.8,6.8,2.4,9.6
		c1.6,2.8,3.8,5.1,6.6,6.7C153.9,70.3,157,71.2,160.4,71.2z" fill-opacity="0.95" fill="#FFFFFF"></path>
	<path class="st-2" style="" d="M224.1,77.4c-4.8,0-9.1-1.1-12.9-3.2c-3.8-2.2-6.8-5.1-8.9-8.9c-2.2-3.8-3.2-8.1-3.2-12.9
		c0-4.9,1.1-9.2,3.2-13c2.2-3.8,5.1-6.8,8.9-8.9c3.8-2.2,8.1-3.2,12.9-3.2c4.8,0,9.1,1.1,12.8,3.2c3.7,2.2,6.7,5.1,8.9,8.9
		s3.3,8.1,3.3,13c0,4.8-1.1,9.1-3.3,12.9s-5.2,6.8-8.9,8.9C233.1,76.4,228.9,77.4,224.1,77.4z M224.1,71.2c3.5,0,6.6-0.8,9.4-2.4
		c2.8-1.6,4.9-3.8,6.5-6.7c1.6-2.8,2.3-6,2.3-9.6c0-3.6-0.8-6.8-2.3-9.7c-1.6-2.8-3.7-5.1-6.5-6.7c-2.8-1.6-5.9-2.4-9.4-2.4
		s-6.6,0.8-9.4,2.4c-2.8,1.6-4.9,3.9-6.5,6.7c-1.6,2.9-2.4,6.1-2.4,9.7c0,3.6,0.8,6.8,2.4,9.6c1.6,2.8,3.8,5,6.5,6.7
		C217.5,70.3,220.6,71.2,224.1,71.2z" fill-opacity="0.95" fill="#FFFFFF"></path>
	<path class="st-2" style="" d="M284.5,77.4c-4.7,0-9-1.1-12.6-3.3c-3.7-2.2-6.6-5.2-8.7-9c-2.1-3.8-3.2-8-3.2-12.8s1-9.1,3.1-12.9
		c2-3.8,4.8-6.8,8.4-9c3.5-2.2,7.6-3.3,12.2-3.3c3.7,0,7,0.7,10.1,2.2c3.1,1.4,5.8,3.6,8.1,6.5c0.7,0.7,0.9,1.5,0.7,2.3
		c-0.2,0.8-0.7,1.5-1.5,2.1c-0.7,0.5-1.4,0.6-2.2,0.5c-0.8-0.1-1.5-0.6-2.1-1.3c-3.5-4-7.9-5.9-13.1-5.9c-3.4,0-6.3,0.8-8.9,2.4
		c-2.6,1.6-4.5,3.8-5.9,6.7c-1.4,2.8-2.1,6.1-2.1,9.7c0,3.6,0.7,6.8,2.2,9.6c1.5,2.8,3.6,5,6.3,6.7c2.7,1.6,5.8,2.4,9.3,2.4
		c2.3,0,4.5-0.3,6.4-0.9s3.7-1.6,5.2-2.9c0.7-0.6,1.5-0.9,2.2-1c0.8-0.1,1.5,0.2,2.2,0.7c0.7,0.7,1.1,1.4,1.2,2.2
		c0.1,0.8-0.2,1.6-0.9,2.2C296.5,75.4,291.1,77.4,284.5,77.4z" fill-opacity="0.95" fill="#FFFFFF"></path>
	<path class="st-2" style="" d="M313.2,35.6c-1,0-1.7-0.3-2.3-0.9c-0.6-0.6-0.9-1.3-0.9-2.1c0-0.9,0.3-1.6,0.9-2.2s1.3-0.9,2.3-0.9h23.5
		c1,0,1.7,0.3,2.3,0.9c0.6,0.6,0.9,1.3,0.9,2.2c0,0.8-0.3,1.5-0.9,2.1s-1.3,0.9-2.3,0.9H313.2z M322.3,77c-0.9,0-1.7-0.3-2.3-0.9
		c-0.7-0.6-1-1.5-1-2.6V27.9c0-4.2,0.7-7.9,2.2-11.1c1.4-3.2,3.6-5.7,6.4-7.4c2.8-1.8,6.3-2.7,10.3-2.7c1,0,1.9,0.3,2.5,0.9
		c0.7,0.6,1,1.4,1,2.2s-0.3,1.7-1,2.2c-0.7,0.6-1.5,0.9-2.5,0.9c-2.7,0-4.9,0.6-6.7,1.8c-1.8,1.2-3.1,2.9-4,5.1s-1.3,4.7-1.3,7.5v46
		c0,1.1-0.3,1.9-0.9,2.6C324.4,76.7,323.5,77,322.3,77z" fill-opacity="0.95" fill="#FFFFFF"></path>
	<path class="st-2" style="" d="M369,77.4c-4.6,0-8.8-1.1-12.4-3.3c-3.7-2.2-6.6-5.2-8.7-9c-2.1-3.8-3.2-8-3.2-12.8s1.1-9.1,3.3-12.9
		c2.2-3.8,5.2-6.8,9-9s8-3.3,12.8-3.3c4.7,0,9,1.1,12.7,3.3s6.7,5.2,8.9,9c2.2,3.8,3.3,8.1,3.4,12.9l-2.8,2.2c0,4.3-1,8.2-3,11.7
		s-4.7,6.2-8.2,8.2C377.3,76.4,373.4,77.4,369,77.4z M369.8,71.2c3.5,0,6.6-0.8,9.3-2.4c2.7-1.6,4.9-3.9,6.5-6.7s2.4-6,2.4-9.6
		c0-3.6-0.8-6.8-2.4-9.6s-3.8-5.1-6.5-6.7c-2.7-1.6-5.8-2.5-9.3-2.5c-3.4,0-6.5,0.8-9.3,2.5s-5,3.9-6.6,6.7s-2.4,6-2.4,9.6
		c0,3.5,0.8,6.7,2.4,9.6c1.6,2.8,3.8,5.1,6.6,6.7C363.3,70.3,366.3,71.2,369.8,71.2z M391.3,77c-1,0-1.9-0.3-2.5-0.9
		c-0.7-0.6-1-1.5-1-2.5V58.2l1.7-7.1l5.3,1.4v21.1c0,1-0.3,1.8-1,2.5C393.1,76.7,392.3,77,391.3,77z" fill-opacity="0.95" fill="#FFFFFF"></path>
	<path class="st-2" style="" d="M422.4,77c-1.4,0-2.5-0.8-3.2-2.3l-20-42.4c-0.4-0.8-0.4-1.6-0.1-2.3c0.3-0.8,0.9-1.4,1.8-1.8
		c0.8-0.4,1.6-0.5,2.4-0.2s1.4,0.8,1.8,1.6l19.2,41.5h-3.7l18.9-41.5c0.4-0.8,1-1.4,1.8-1.7c0.9-0.3,1.7-0.2,2.6,0.1
		c0.8,0.4,1.4,1,1.7,1.8c0.3,0.8,0.3,1.6-0.1,2.3l-19.7,42.5C425.1,76.2,424,77,422.4,77z" fill-opacity="0.95" fill="#FFFFFF"></path>
</g>
</svg>